<svg width="300" height="111" viewBox="0 0 300 111" fill="none" xmlns="http://www.w3.org/2000/svg">
<g clip-path="url(#clip0_178_200)">
<path fill-rule="evenodd" clip-rule="evenodd" d="M55.1487 1.11914C85.0009 1.11914 109.178 25.2966 109.178 55.1487C109.178 85.0009 85.0009 109.178 55.1487 109.178C25.2966 109.178 1.11914 85.0009 1.11914 55.1487C1.11914 25.2966 25.3365 1.11914 55.1487 1.11914Z" fill="#E5E543"/>
<path d="M55.1487 1.11914C85.0009 1.11914 109.178 25.2966 109.178 55.1487C109.178 85.0009 85.0009 109.178 55.1487 109.178C25.2966 109.178 1.11914 85.0009 1.11914 55.1487C1.11914 25.2966 25.3365 1.11914 55.1487 1.11914Z" stroke="#E5E543" stroke-width="1.08407" stroke-miterlimit="22.93"/>
<path d="M96.4299 53.4702L95.9504 52.5111C95.9504 52.5111 95.8305 52.2313 95.6707 51.9916C94.3519 49.7537 92.5136 47.3559 90.6753 45.6375C90.3157 45.3178 90.1958 45.1579 90.1158 45.0381C89.8361 44.6784 89.6762 44.5985 88.877 44.1189L88.4774 43.7992C88.3575 43.4395 88.3575 42.5204 88.3575 42.0009C88.3575 41.3615 88.3575 40.7221 88.2776 40.2026C87.5183 35.2872 85.9597 31.7305 82.7227 27.4944C81.1242 25.3764 79.6056 24.1775 77.7274 22.619L77.4077 22.3792C75.4096 20.7407 71.3334 18.9024 68.8956 18.263C64.8194 17.184 51.9115 17.3439 43.3595 17.4238C41.721 17.4238 40.2823 17.4238 39.2034 17.4238C31.8103 17.4238 25.616 19.9814 20.8205 24.9368C20.7406 25.0167 20.6207 25.1366 20.4608 25.2565C20.261 25.4164 20.0612 25.5762 19.8614 25.816L17.1839 29.013L16.3447 30.5716C16.1848 30.8113 16.1049 31.0111 16.025 31.211L15.5854 32.0901C15.5854 32.0901 15.3456 32.4898 15.1858 32.8494C13.1876 36.8857 12.748 40.9219 12.748 46.117V110.817L13.9469 110.737C15.4655 110.657 16.6644 109.578 17.7034 108.659C18.0231 108.379 18.3428 108.099 18.6226 107.859C19.3419 107.34 20.6207 106.341 22.1792 105.142C26.0956 102.145 32.0101 97.589 33.8883 96.55C39.563 93.4729 45.3176 93.4729 51.9914 93.5128H53.7498C55.3483 93.5128 57.3065 93.5128 59.3845 93.5528C63.9403 93.5927 69.1354 93.6327 72.4523 93.5128C74.93 93.3929 78.5666 92.9533 81.7636 91.3548L84.8807 89.9162C87.1986 88.6773 89.3965 86.6792 91.2348 84.9208C91.5545 84.6011 91.7543 84.4013 91.9541 84.1615C92.074 84.0417 92.1539 83.9218 92.3138 83.7619C94.3918 81.524 95.7506 78.9264 96.7896 76.6086C97.1892 75.7294 97.7088 74.2108 97.9885 73.4116C98.1883 72.7722 98.3481 71.8131 98.468 70.8939C98.548 70.3344 98.6279 69.8149 98.7078 69.4153C99.7868 64.4999 98.0285 56.8271 96.3101 53.4702H96.4299ZM21.42 45.2778C21.42 41.9609 21.42 40.2825 22.6588 37.4451C22.9385 36.7658 23.0984 36.3661 23.2183 36.0464C23.4181 35.487 23.498 35.2472 24.537 33.8485C27.5342 29.7323 30.5314 27.6942 35.6467 26.2955C36.9255 25.9359 40.2424 25.856 43.4394 25.856C44.9979 25.856 46.5165 25.856 47.7554 25.856C50.5128 25.856 52.0713 25.856 53.9896 25.856C61.8622 25.7361 69.3352 25.6162 74.6103 31.171C76.009 32.6496 77.0081 33.6886 77.8073 35.5269L79.6856 41.2816C79.6856 41.2816 79.246 41.2816 78.9263 41.2816C75.2897 41.2016 56.707 41.1217 54.9087 41.4414L52.0314 42.2007C50.5128 42.8001 48.0351 44.3587 46.9561 45.4377C44.0388 48.2351 42.6002 52.2313 42.7201 57.0269C42.8799 61.9822 45.7572 65.3391 48.115 67.2973L48.7145 67.7768C49.9933 68.7359 50.6327 69.0157 51.7916 69.4952L52.3111 69.695C54.589 70.6542 59.6643 70.6541 65.0992 70.5742C65.9384 70.5742 66.6577 70.5742 67.2572 70.5742C74.7302 70.5742 81.0043 64.1003 84.1214 58.5854L86.5991 53.8299C86.5991 53.8299 86.679 53.9497 86.759 54.0297L87.2785 54.789C89.1967 57.5863 89.5963 59.4646 90.1958 62.3019L90.3157 62.9413C91.4346 68.0566 89.0368 73.2517 87.9579 75.2099C86.3194 78.2071 82.9226 81.2043 80.3649 82.563C78.8064 83.4023 76.7283 84.1216 74.7702 84.4413L73.8111 84.6011C73.0518 84.761 72.7321 84.8009 71.4133 84.8409H54.9087H51.7516C44.5983 84.761 39.4431 84.761 31.8502 87.8381C29.7322 88.7173 27.1746 90.4757 25.3763 91.8344L24.3372 92.6336C23.6579 93.1931 22.3791 94.1922 21.42 94.9115V46.8364V45.1579V45.2778ZM67.3771 60.9832C66.6577 61.223 65.8185 61.5027 65.339 61.5427C62.8213 61.8224 62.102 61.9423 62.0221 62.0222C61.8222 62.0222 61.3427 61.9023 58.5853 61.9023H58.1057C56.7869 61.9023 56.0277 61.9023 55.1884 61.5027C53.0305 60.5036 51.6318 58.8652 51.3121 56.907C50.9924 54.9488 51.7516 52.8707 53.4301 51.2323C54.7089 49.9535 56.5072 49.8336 58.2656 49.8336C58.2656 49.8336 58.3055 49.8336 58.3455 49.8336C62.7014 49.8336 65.259 49.8336 67.417 49.7936C70.694 49.7537 72.9718 49.7137 79.0861 49.8735C78.9263 50.2332 78.7664 50.5529 78.6465 50.7927L78.4467 51.1523C76.7283 54.6291 73.6112 59.065 68.3761 60.6635C68.0964 60.7434 67.7767 60.8633 67.417 60.9832H67.3771Z" fill="black"/>
<path d="M113.773 107.699H118.969V106.62H114.932V99.1074H113.773V107.699Z" fill="white"/>
<path d="M124.364 99.1074H123.205V107.659H124.364V99.1074Z" fill="white"/>
<path d="M133.236 103.743C134.075 103.743 134.674 104.383 134.674 105.182C134.674 105.981 134.035 106.66 133.236 106.66H130.358V103.743H133.236ZM132.876 100.146C133.595 100.146 134.155 100.706 134.155 101.465C134.155 102.225 133.555 102.784 132.876 102.784H130.358V100.186H132.876V100.146ZM129.279 107.699H133.515C134.874 107.699 135.873 106.7 135.873 105.382C135.873 104.303 135.234 103.383 134.275 103.144C134.914 102.864 135.354 102.145 135.354 101.265C135.354 100.027 134.395 99.1074 133.156 99.1074H129.279V107.659V107.699Z" fill="white"/>
<path d="M140.109 107.699H145.664V106.62H141.268V103.903H145.185V102.864H141.268V100.186H145.584V99.1074H140.109V107.699Z" fill="white"/>
<path d="M153.776 100.186C154.655 100.186 155.295 100.826 155.295 101.745C155.295 102.664 154.615 103.304 153.776 103.304H151.259V100.186H153.776ZM150.1 107.699H151.259V104.303H152.737L154.176 106.461C154.655 107.3 155.375 107.699 156.334 107.699H156.733V106.62H156.454C155.974 106.62 155.574 106.381 155.255 105.941L154.096 104.303C155.495 104.183 156.494 103.144 156.494 101.745C156.494 100.266 155.335 99.1475 153.816 99.1475H150.14V107.699H150.1Z" fill="white"/>
<path d="M164.207 100.186C166.005 100.186 167.404 101.585 167.404 103.423C167.404 105.262 166.005 106.66 164.207 106.66H162.049V100.226H164.207V100.186ZM160.93 107.699H164.247C166.724 107.699 168.603 105.861 168.603 103.423C168.603 100.986 166.724 99.1475 164.247 99.1475H160.93V107.699Z" fill="white"/>
<path d="M174.197 104.582L175.876 100.386L177.554 104.582H174.197ZM171.72 107.699H172.919L173.758 105.621H177.954L178.793 107.699H180.032L176.555 99.1475H175.196L171.72 107.699Z" fill="white"/>
<path d="M187.385 100.186C189.184 100.186 190.582 101.585 190.582 103.423C190.582 105.262 189.224 106.66 187.385 106.66H185.227V100.226H187.385V100.186ZM184.068 107.699H187.385C189.863 107.699 191.741 105.861 191.741 103.423C191.741 100.986 189.863 99.1475 187.385 99.1475H184.068V107.699Z" fill="white"/>
<path d="M196.177 107.699H201.732V106.62H197.296V103.903H201.252V102.864H197.296V100.186H201.652V99.1074H196.177V107.699Z" fill="white"/>
<path d="M212.322 107.699H217.877V106.62H213.441V103.903H217.398V102.864H213.441V100.186H217.797V99.1074H212.322V107.699Z" fill="white"/>
<path d="M222.312 107.699H227.508V106.62H223.471V99.1074H222.312V107.699Z" fill="white"/>
<path d="M231.744 107.7H237.299V106.621H232.903V103.903H236.859V102.824H232.903V100.147H237.259V99.0678H231.784V107.62L231.744 107.7ZM233.982 98.3085H235.141L236.66 96.71H235.301L234.022 98.3085H233.982Z" fill="white"/>
<path d="M243.732 107.699H244.891V100.186H247.449V99.1074H241.135V100.186H243.732V107.699Z" fill="white"/>
<path d="M255.361 100.186C256.24 100.186 256.88 100.826 256.88 101.745C256.88 102.664 256.24 103.304 255.361 103.304H252.844V100.186H255.361ZM251.725 107.699H252.884V104.303H254.362L255.801 106.461C256.28 107.3 257 107.699 257.959 107.699H258.358V106.62H258.079C257.599 106.62 257.199 106.381 256.88 105.941L255.721 104.303C257.12 104.183 258.119 103.144 258.119 101.745C258.119 100.266 256.96 99.1475 255.441 99.1475H251.765V107.699H251.725Z" fill="white"/>
<path d="M263.674 99.1074H262.515V107.659H263.674V99.1074Z" fill="white"/>
<path d="M272.585 107.859C274.663 107.859 276.382 106.541 276.821 104.702H275.622C275.183 105.901 274.024 106.74 272.585 106.74C270.707 106.74 269.268 105.302 269.268 103.384C269.268 101.465 270.707 100.027 272.585 100.027C274.024 100.027 275.183 100.866 275.622 102.065H276.821C276.342 100.226 274.663 98.9077 272.585 98.9077C270.028 98.9077 268.109 100.826 268.109 103.344C268.109 105.861 270.068 107.779 272.585 107.779" fill="white"/>
<path d="M282.376 104.582L284.055 100.386L285.733 104.582H282.376ZM279.898 107.699H281.097L281.937 105.621H286.133L286.972 107.699H288.211L284.734 99.1475H283.375L279.898 107.699Z" fill="white"/>
<path d="M125.562 76.6483C128.839 76.6483 131.836 75.8491 134.714 74.3705C137.591 72.8918 139.869 70.574 141.667 67.4969C143.346 64.4197 144.265 60.7432 144.265 56.3473C144.265 51.9514 143.386 48.2748 141.667 45.1977C139.989 42.1206 137.711 39.8427 134.914 38.3241C132.116 36.8455 129.159 36.1261 125.882 36.1261C122.605 36.1261 119.528 36.8055 116.85 38.3241C114.053 39.8027 111.895 42.1206 110.177 45.1977C108.498 48.2748 107.699 51.9514 107.699 56.3473C107.699 60.7432 108.498 64.4997 110.177 67.5768C111.775 70.6539 113.973 72.8519 116.651 74.3305C119.328 75.8091 122.325 76.6084 125.602 76.6084M125.562 84.6009C120.487 84.6009 115.811 83.402 111.735 81.1241C107.579 78.8463 104.262 75.4494 101.984 71.1734C99.5866 66.8974 98.3877 62.022 98.3877 56.3473C98.3877 50.6726 99.5866 45.7971 102.064 41.5211C104.462 37.2451 107.739 33.9682 111.895 31.6903C116.051 29.4124 120.727 28.2935 125.922 28.2935C131.117 28.2935 135.753 29.3724 139.949 31.6903C144.145 33.9682 147.422 37.2451 149.9 41.5211C152.297 45.7971 153.496 50.6726 153.496 56.3473C153.496 62.022 152.297 66.8974 149.82 71.1734C147.342 75.4494 143.945 78.8463 139.669 81.1241C135.393 83.402 130.718 84.6009 125.562 84.6009Z" fill="white"/>
<path d="M177.674 84.6011C173.478 84.6011 169.722 83.9217 166.445 82.4031C163.168 81.0044 160.49 79.0063 158.572 76.4487C156.694 73.971 155.575 70.9738 155.375 67.6968H164.726C165.006 70.3743 166.325 72.6522 168.603 74.3706C170.881 76.049 173.878 76.9682 177.554 76.9682C181.031 76.9682 183.709 76.1689 185.707 74.6903C187.705 73.2117 188.704 71.2136 188.704 68.9357C188.704 66.6578 187.625 64.7796 185.507 63.5807C183.429 62.5017 180.152 61.3028 175.676 60.1838C171.6 59.1049 168.323 57.9859 165.845 56.9069C163.248 55.8279 161.09 54.2294 159.291 52.0315C157.413 49.9534 156.494 47.0761 156.494 43.5993C156.494 40.8019 157.293 38.2443 158.972 35.9265C160.65 33.6486 162.928 31.7704 166.045 30.3717C169.122 29.0929 172.599 28.3735 176.475 28.3735C182.55 28.3735 187.425 29.8522 191.102 32.9293C194.778 36.0064 196.776 40.2025 197.056 45.4376H188.025C187.825 42.5603 186.746 40.2824 184.628 38.564C182.55 36.8856 179.672 35.9664 176.196 35.9664C172.919 35.9664 170.321 36.6458 168.443 38.0445C166.565 39.4432 165.565 41.2415 165.565 43.5194C165.565 45.3177 166.165 46.7963 167.364 47.8753C168.443 49.0742 169.961 49.9534 171.72 50.6727C173.398 51.3521 175.876 52.1513 178.993 53.0705C182.869 54.1495 186.066 55.1485 188.544 56.1476C191.022 57.2266 193.1 58.7452 194.898 60.8233C196.577 62.9013 197.496 65.5788 197.576 68.8957C197.576 71.8929 196.776 74.5704 195.098 76.9282C193.419 79.326 191.102 81.2042 188.144 82.483C185.067 83.8817 181.591 84.5611 177.714 84.5611" fill="white"/>
<path d="M222.552 84.6011C218.396 84.6011 214.6 83.9217 211.323 82.4031C208.046 81.0044 205.368 79.0063 203.45 76.4487C201.572 73.971 200.453 70.9738 200.253 67.6968H209.604C209.884 70.3743 211.203 72.6522 213.481 74.3706C215.758 76.049 218.756 76.9682 222.432 76.9682C225.909 76.9682 228.586 76.1689 230.585 74.6903C232.583 73.2117 233.582 71.2136 233.582 68.9357C233.582 66.6578 232.503 64.7796 230.385 63.5807C228.307 62.5017 225.03 61.3028 220.554 60.1838C216.478 59.1049 213.201 57.9859 210.723 56.9069C208.126 55.8279 205.968 54.2294 204.169 52.0315C202.291 49.9534 201.372 47.0761 201.372 43.5993C201.372 40.8019 202.171 38.2443 203.85 35.9265C205.528 33.6486 207.846 31.7704 210.923 30.3717C214 29.0929 217.477 28.3735 221.353 28.3735C227.428 28.3735 232.303 29.8522 235.98 32.9293C239.656 36.0064 241.654 40.2025 241.934 45.4376H232.902C232.703 42.5603 231.624 40.2824 229.506 38.564C227.428 36.8856 224.55 35.9664 221.073 35.9664C217.797 35.9664 215.199 36.6458 213.321 38.0445C211.442 39.4432 210.443 41.2415 210.443 43.5194C210.443 45.3177 211.043 46.7963 212.242 47.8753C213.321 49.0742 214.839 49.9534 216.598 50.6727C218.276 51.3521 220.754 52.1513 223.871 53.0705C227.747 54.1495 230.944 55.1485 233.422 56.1476C235.9 57.2266 237.978 58.7452 239.776 60.8233C241.454 62.9013 242.374 65.5788 242.454 68.8957C242.454 71.8929 241.654 74.5704 239.976 76.9282C238.297 79.326 236.02 81.2042 233.022 82.483C229.945 83.8817 226.468 84.5611 222.592 84.5611" fill="white"/>
<path d="M290.848 56.3873C290.848 52.3111 290.049 48.7145 288.371 45.6373C286.692 42.5602 284.494 40.2823 281.697 38.5639C278.82 36.9654 275.743 36.1662 272.346 36.1662C268.949 36.1662 265.872 36.9654 263.114 38.5639C260.317 40.1625 258.159 42.4403 256.441 45.5175C254.762 48.5946 253.963 52.1912 253.963 56.2674C253.963 60.3436 254.762 64.0202 256.441 67.0973C258.119 70.1745 260.317 72.5722 263.114 74.1707C265.912 75.8491 268.989 76.6484 272.346 76.6484C275.703 76.6484 278.82 75.8491 281.697 74.1707C284.494 72.5722 286.652 70.2144 288.371 67.0973C290.049 64.0202 290.848 60.4235 290.848 56.3474M244.731 56.2674C244.731 50.7126 245.81 45.8372 248.128 41.5611C250.406 37.405 253.483 34.0881 257.48 31.8103C261.356 29.5324 265.752 28.3335 270.587 28.3335C275.423 28.3335 279.539 29.3326 283.016 31.4106C286.492 33.4887 289.17 36.0863 290.888 39.1634V29.2127H300.04V83.6818H290.888V73.5313C289.09 76.7283 286.413 79.2859 282.936 81.404C279.339 83.482 275.183 84.601 270.507 84.601C265.832 84.601 261.276 83.4021 257.4 81.0043C253.523 78.6066 250.446 75.2497 248.168 70.9737C245.89 66.6977 244.771 61.7423 244.771 56.2674H244.731Z" fill="white"/>
</g>
<defs>
<clipPath id="clip0_178_200">
<rect width="300" height="110.777" fill="white"/>
</clipPath>
</defs>
</svg>
